<?xml version="1.0" encoding="UTF-8" standalone="no"?>
<svg width="18px" height="18px" viewBox="0 0 18 18" version="1.1" xmlns="http://www.w3.org/2000/svg" xmlns:xlink="http://www.w3.org/1999/xlink">
    <!-- Generator: Sketch 40.1 (33804) - http://www.bohemiancoding.com/sketch -->
    <title>Group 92</title>
    <desc>Created with Sketch.</desc>
    <defs></defs>
    <g id="Icons" stroke="none" stroke-width="1" fill="none" fill-rule="evenodd">
        <g id="Interface-Icons---Line" transform="translate(-16.000000, -430.000000)" fill="#77716F">
            <g id="Group" transform="translate(16.000000, 391.000000)">
                <g id="Group-92" transform="translate(0.000000, 39.000000)">
                    <g id="Group-16">
                        <g id="Group-17">
                            <text id="B" font-family="ProximaNova-Bold, Proxima Nova" font-size="7" font-weight="bold" letter-spacing="0.549460351">
                                <tspan x="7" y="11">B</tspan>
                            </text>
                            <g id="Group-91">
                                <g id="Group-90">
                                    <g id="settings">
                                        <path d="M17.1975922,7.26177692 C16.859072,7.21108131 16.5115518,7.16245994 16.1647347,7.11724873 C16.1227229,7.11179948 16.0886213,7.0832876 16.0780041,7.04468581 C15.9179373,6.46379569 15.6856595,5.90326115 15.3876746,5.37865652 C15.3676355,5.34342975 15.3713972,5.29899199 15.3972723,5.26534726 C15.6105656,4.9881386 15.8219957,4.70790649 16.0257266,4.43249082 C16.3007896,4.06060582 16.2608521,3.53290742 15.9329139,3.20493284 L14.7950445,2.06705899 C14.4670712,1.73911957 13.93941,1.69918183 13.5674562,1.97431626 C13.2926392,2.17759088 13.0124434,2.38902181 12.7346382,2.60273791 C12.701099,2.62861306 12.656556,2.6323748 12.6213293,2.61237078 C12.0967619,2.31438465 11.5362296,2.08210595 10.9553066,1.92200345 C10.9166698,1.91142136 10.888158,1.87731959 10.8826736,1.83520216 C10.8373571,1.48785637 10.7887711,1.14036996 10.7382163,0.802446108 C10.6697669,0.344955146 10.2684224,0 9.80460509,0 L8.19539491,0 C7.73154244,0 7.33019791,0.344955146 7.26185403,0.802410952 C7.21126408,1.14040512 7.16267805,1.48785637 7.11736156,1.83527247 C7.11184202,1.87735475 7.0833654,1.9113862 7.04469345,1.92200345 C6.46377044,2.08217626 5.90320294,2.31441981 5.37874097,2.61237078 C5.34347919,2.6323748 5.29897129,2.62850759 5.26536185,2.60273791 C4.98759177,2.38902181 4.70736076,2.17759088 4.43250866,1.9742811 C4.06051965,1.69918183 3.53285846,1.73918988 3.20495548,2.06709414 L2.06708607,3.204968 C1.73911277,3.53297773 1.69921035,4.06071129 1.9743437,4.43256113 C2.17839097,4.70839868 2.38982107,4.98856048 2.6027629,5.26534726 C2.62860279,5.29892167 2.63239967,5.34339459 2.61239573,5.37865652 C2.31434046,5.90336662 2.08209782,6.46390116 1.9220311,7.04468581 C1.91144905,7.08325244 1.87734742,7.11176433 1.83530046,7.11728389 C1.48865916,7.16253025 1.1411741,7.21111647 0.80247813,7.26181208 C0.344953799,7.33019139 0,7.7316078 0,8.19539177 L0,9.80464339 C0,10.2684625 0.344953799,10.6698438 0.802407817,10.7382582 C1.14110379,10.7889538 1.488624,10.8375401 1.8352653,10.8827513 C1.87734742,10.8882708 1.91137873,10.9167476 1.92199594,10.9553845 C2.08206266,11.5362043 2.31434046,12.0967388 2.61236057,12.6214138 C2.63236452,12.6566757 2.62856763,12.7011486 2.60272774,12.7347231 C2.38925857,13.0121778 2.17782847,13.2923748 1.97430854,13.5675443 C1.69921035,13.9394293 1.73907762,14.4671629 2.06705091,14.7951375 L3.20492032,15.9330113 C3.53292878,16.2609859 4.06066027,16.3009236 4.43250866,16.0257541 C4.7073256,15.8224794 4.98752146,15.6110485 5.26532669,15.3973324 C5.29890097,15.3714573 5.34340887,15.3677307 5.37863551,15.3876995 C5.90316778,15.6856857 6.46366497,15.9178941 7.04465829,16.0780669 C7.08329508,16.0886841 7.11180686,16.1227507 7.11729124,16.1647978 C7.16260774,16.5121436 7.21122893,16.8596652 7.26178371,17.1975539 C7.33019791,17.6550449 7.73154244,18 8.19539491,18 L9.80460509,18 C10.2684224,18 10.6698021,17.6550449 10.7381811,17.1974836 C10.7887711,16.859173 10.8373571,16.5116866 10.8826384,16.1647275 C10.888158,16.1226452 10.9166346,16.0885786 10.9552714,16.0779262 C11.5361944,15.9177534 12.0967619,15.6855099 12.621259,15.3875589 C12.6565208,15.3676252 12.7009936,15.3714221 12.734603,15.3971918 C13.0123731,15.6109079 13.2926041,15.8223388 13.567421,16.0256134 C13.9393046,16.3007127 14.4670009,16.2608453 14.7950094,15.9328707 L15.9328788,14.7949968 C16.2608169,14.4670223 16.3007545,13.9393239 16.0256563,13.5674037 C15.8219254,13.2920935 15.6104602,13.0118614 15.3972019,12.7345824 C15.3713621,12.701008 15.3675652,12.6565351 15.3876043,12.6212732 C15.6856244,12.0965982 15.917867,11.5360637 16.0779337,10.955279 C16.0886213,10.9166069 16.1226526,10.8881302 16.1647347,10.8826106 C16.5114815,10.8373994 16.8590017,10.7887781 17.197557,10.7381176 C17.6550462,10.6697383 18,10.268357 18,9.80453792 L18,8.1952863 C18,7.73157265 17.6550462,7.33015623 17.1975922,7.26177692 L17.1975922,7.26177692 Z M17.0699363,9.90367258 C16.7365841,9.95355959 16.3943725,10.0013724 16.0527937,10.0459859 C15.674582,10.0952753 15.3651361,10.3632378 15.2643781,10.7287243 C15.1227333,11.2426414 14.9172095,11.7386638 14.6535371,12.2029048 C14.4660484,12.5329888 14.495193,12.9416123 14.7277872,13.2439578 C14.9378814,13.5170531 15.1461122,13.7929962 15.346679,14.0641227 C15.3762807,14.1040956 15.3713588,14.161471 15.3353236,14.1975063 L14.197419,15.3353802 C14.1613486,15.3714507 14.1040087,15.3762671 14.0640711,15.3467709 C13.7934729,15.1465549 13.5174606,14.9383232 13.2438742,14.7278415 C12.941565,14.4952112 12.5329782,14.4660665 12.2029307,14.6535207 C11.7386915,14.9171941 11.242671,15.1227539 10.7286857,15.2644345 C10.3632709,15.3651577 10.0953094,15.6746048 10.0459148,16.0528531 C10.0013717,16.3946442 9.95348883,16.7368572 9.90363717,17.0699997 C9.8962895,17.1191836 9.85227378,17.1562385 9.80129712,17.1562385 L8.19208695,17.1562385 C8.14111029,17.1562385 8.09709458,17.1191836 8.0897469,17.0699646 C8.04000071,16.7372087 7.99208265,16.3949958 7.94746928,16.0528883 C7.89814497,15.67464 7.63011319,15.3651929 7.26469842,15.2644696 C6.75067788,15.1227891 6.25465738,14.9172293 5.79045335,14.6535207 C5.64571479,14.5713601 5.48585901,14.5307895 5.32653057,14.5307895 C5.1224833,14.5307895 4.91924462,14.5972352 4.74954507,14.7279118 C4.47592344,14.9383935 4.19994634,15.1466252 3.92934815,15.3468412 C3.88934026,15.3763375 3.83207062,15.371521 3.79603539,15.3354505 L2.65813083,14.1975766 C2.62206044,14.1615061 2.61713856,14.1042011 2.64674018,14.0642282 C2.84716635,13.7932774 3.05536207,13.5173344 3.26563201,13.2440281 C3.49819106,12.9416826 3.52737081,12.5331294 3.33995247,12.2030806 C3.07617461,11.738699 2.87068593,11.2427117 2.72904112,10.7288298 C2.62831827,10.3634136 2.31887235,10.0954159 1.94066068,10.0460914 C1.59922251,10.0015482 1.25697575,9.95362991 0.923447752,9.90377805 C0.874264062,9.8963952 0.837209302,9.85241447 0.837209302,9.80143761 L0.837209302,8.19218599 C0.837209302,8.14120913 0.874264062,8.0972284 0.923447752,8.08984555 C1.25697575,8.03995854 1.59918735,7.99207544 1.94059036,7.94753221 C2.3188372,7.89824286 2.62828311,7.6302452 2.72900597,7.26479384 C2.87058046,6.75094708 3.07613946,6.25492464 3.33991732,5.79054301 C3.52737081,5.46045905 3.49819106,5.05187072 3.26563201,4.74959551 C3.05592457,4.47692204 2.8476937,4.20101417 2.64674018,3.92939539 C2.61720887,3.8894225 2.6220956,3.83204716 2.65813083,3.79604695 L3.79596508,2.65813794 C3.83196515,2.62206742 3.88930511,2.61725098 3.92927784,2.64674725 C4.19987603,2.84692811 4.47585313,3.0551598 4.74947476,3.26567666 C5.0518191,3.49820146 5.46037068,3.52741647 5.79048851,3.33992709 C6.25465738,3.07625367 6.75067788,2.87069387 7.26466326,2.72901336 C7.63011319,2.62829011 7.89814497,2.31884298 7.94746928,1.94059467 C7.99211781,1.5984872 8.03996556,1.25627426 8.08978206,0.923412932 C8.09712973,0.874299363 8.14114544,0.837209302 8.1921221,0.837209302 L9.80133228,0.837209302 C9.85230894,0.837209302 9.89632465,0.874264207 9.90367232,0.923448089 C9.95348883,1.25620394 10.0013366,1.59838173 10.0459851,1.94059467 C10.0953094,2.31884298 10.3633412,2.62829011 10.728756,2.72901336 C11.2427413,2.87069387 11.7387267,3.07625367 12.203001,3.33992709 C12.5330486,3.527311 12.9416353,3.49820146 13.2439093,3.26560634 C13.5175309,3.05512464 13.793508,2.84689295 14.0640711,2.64671209 C14.1040438,2.61711036 14.1614189,2.6219971 14.1974541,2.65810278 L15.3353236,3.79597664 C15.3713939,3.83204716 15.3762455,3.88938734 15.3467142,3.92932508 C15.1461474,4.20052198 14.9379165,4.47642984 14.7278224,4.74952519 C14.4952633,5.05190587 14.4660836,5.4604942 14.6535722,5.79057817 C14.9172798,6.25481917 15.1228036,6.75080645 15.2644836,7.26479384 C15.3652064,7.63021004 15.6747227,7.89817255 16.0528289,7.9474619 C16.3944077,7.99204029 16.7366544,8.03992338 17.0700418,8.08977524 C17.1192255,8.09715809 17.1562802,8.14113882 17.1562802,8.19211568 L17.1562802,9.80133214 C17.1561748,9.852309 17.11912,9.89625457 17.0699363,9.90367258 Z" id="Shape"></path>
                                        <path d="M3.34883721,9 C3.34883721,12.1160874 5.88391261,14.6511628 9,14.6511628 C12.1160874,14.6511628 14.6511628,12.1160874 14.6511628,9 C14.6511628,5.88391261 12.1160874,3.34883721 9,3.34883721 C5.88391261,3.34883721 3.34883721,5.88391261 3.34883721,9 Z M3.76744186,9 C3.76744186,6.11469935 6.11481933,3.76744186 9,3.76744186 C11.8852407,3.76744186 14.2325581,6.11475934 14.2325581,9 C14.2325581,11.8852407 11.8853006,14.2325581 9,14.2325581 C6.11469935,14.2325581 3.76744186,11.8852407 3.76744186,9 Z" id="Shape"></path>
                                        <path d="M17.1975922,7.26177692 C16.859072,7.21108131 16.5115518,7.16245994 16.1647347,7.11724873 C16.1227229,7.11179948 16.0886213,7.0832876 16.0780041,7.04468581 C15.9179373,6.46379569 15.6856595,5.90326115 15.3876746,5.37865652 C15.3676355,5.34342975 15.3713972,5.29899199 15.3972723,5.26534726 C15.6105656,4.9881386 15.8219957,4.70790649 16.0257266,4.43249082 C16.3007896,4.06060582 16.2608521,3.53290742 15.9329139,3.20493284 L14.7950445,2.06705899 C14.4670712,1.73911957 13.93941,1.69918183 13.5674562,1.97431626 C13.2926392,2.17759088 13.0124434,2.38902181 12.7346382,2.60273791 C12.701099,2.62861306 12.656556,2.6323748 12.6213293,2.61237078 C12.0967619,2.31438465 11.5362296,2.08210595 10.9553066,1.92200345 C10.9166698,1.91142136 10.888158,1.87731959 10.8826736,1.83520216 C10.8373571,1.48785637 10.7887711,1.14036996 10.7382163,0.802446108 C10.6697669,0.344955146 10.2684224,0 9.80460509,0 L8.19539491,0 C7.73154244,0 7.33019791,0.344955146 7.26185403,0.802410952 C7.21126408,1.14040512 7.16267805,1.48785637 7.11736156,1.83527247 C7.11184202,1.87735475 7.0833654,1.9113862 7.04469345,1.92200345 C6.46377044,2.08217626 5.90320294,2.31441981 5.37874097,2.61237078 C5.34347919,2.6323748 5.29897129,2.62850759 5.26536185,2.60273791 C4.98759177,2.38902181 4.70736076,2.17759088 4.43250866,1.9742811 C4.06051965,1.69918183 3.53285846,1.73918988 3.20495548,2.06709414 L2.06708607,3.204968 C1.73911277,3.53297773 1.69921035,4.06071129 1.9743437,4.43256113 C2.17839097,4.70839868 2.38982107,4.98856048 2.6027629,5.26534726 C2.62860279,5.29892167 2.63239967,5.34339459 2.61239573,5.37865652 C2.31434046,5.90336662 2.08209782,6.46390116 1.9220311,7.04468581 C1.91144905,7.08325244 1.87734742,7.11176433 1.83530046,7.11728389 C1.48865916,7.16253025 1.1411741,7.21111647 0.80247813,7.26181208 C0.344953799,7.33019139 0,7.7316078 0,8.19539177 L0,9.80464339 C0,10.2684625 0.344953799,10.6698438 0.802407817,10.7382582 C1.14110379,10.7889538 1.488624,10.8375401 1.8352653,10.8827513 C1.87734742,10.8882708 1.91137873,10.9167476 1.92199594,10.9553845 C2.08206266,11.5362043 2.31434046,12.0967388 2.61236057,12.6214138 C2.63236452,12.6566757 2.62856763,12.7011486 2.60272774,12.7347231 C2.38925857,13.0121778 2.17782847,13.2923748 1.97430854,13.5675443 C1.69921035,13.9394293 1.73907762,14.4671629 2.06705091,14.7951375 L3.20492032,15.9330113 C3.53292878,16.2609859 4.06066027,16.3009236 4.43250866,16.0257541 C4.7073256,15.8224794 4.98752146,15.6110485 5.26532669,15.3973324 C5.29890097,15.3714573 5.34340887,15.3677307 5.37863551,15.3876995 C5.90316778,15.6856857 6.46366497,15.9178941 7.04465829,16.0780669 C7.08329508,16.0886841 7.11180686,16.1227507 7.11729124,16.1647978 C7.16260774,16.5121436 7.21122893,16.8596652 7.26178371,17.1975539 C7.33019791,17.6550449 7.73154244,18 8.19539491,18 L9.80460509,18 C10.2684224,18 10.6698021,17.6550449 10.7381811,17.1974836 C10.7887711,16.859173 10.8373571,16.5116866 10.8826384,16.1647275 C10.888158,16.1226452 10.9166346,16.0885786 10.9552714,16.0779262 C11.5361944,15.9177534 12.0967619,15.6855099 12.621259,15.3875589 C12.6565208,15.3676252 12.7009936,15.3714221 12.734603,15.3971918 C13.0123731,15.6109079 13.2926041,15.8223388 13.567421,16.0256134 C13.9393046,16.3007127 14.4670009,16.2608453 14.7950094,15.9328707 L15.9328788,14.7949968 C16.2608169,14.4670223 16.3007545,13.9393239 16.0256563,13.5674037 C15.8219254,13.2920935 15.6104602,13.0118614 15.3972019,12.7345824 C15.3713621,12.701008 15.3675652,12.6565351 15.3876043,12.6212732 C15.6856244,12.0965982 15.917867,11.5360637 16.0779337,10.955279 C16.0886213,10.9166069 16.1226526,10.8881302 16.1647347,10.8826106 C16.5114815,10.8373994 16.8590017,10.7887781 17.197557,10.7381176 C17.6550462,10.6697383 18,10.268357 18,9.80453792 L18,8.1952863 C18,7.73157265 17.6550462,7.33015623 17.1975922,7.26177692 L17.1975922,7.26177692 Z M17.0699363,9.90367258 C16.7365841,9.95355959 16.3943725,10.0013724 16.0527937,10.0459859 C15.674582,10.0952753 15.3651361,10.3632378 15.2643781,10.7287243 C15.1227333,11.2426414 14.9172095,11.7386638 14.6535371,12.2029048 C14.4660484,12.5329888 14.495193,12.9416123 14.7277872,13.2439578 C14.9378814,13.5170531 15.1461122,13.7929962 15.346679,14.0641227 C15.3762807,14.1040956 15.3713588,14.161471 15.3353236,14.1975063 L14.197419,15.3353802 C14.1613486,15.3714507 14.1040087,15.3762671 14.0640711,15.3467709 C13.7934729,15.1465549 13.5174606,14.9383232 13.2438742,14.7278415 C12.941565,14.4952112 12.5329782,14.4660665 12.2029307,14.6535207 C11.7386915,14.9171941 11.242671,15.1227539 10.7286857,15.2644345 C10.3632709,15.3651577 10.0953094,15.6746048 10.0459148,16.0528531 C10.0013717,16.3946442 9.95348883,16.7368572 9.90363717,17.0699997 C9.8962895,17.1191836 9.85227378,17.1562385 9.80129712,17.1562385 L8.19208695,17.1562385 C8.14111029,17.1562385 8.09709458,17.1191836 8.0897469,17.0699646 C8.04000071,16.7372087 7.99208265,16.3949958 7.94746928,16.0528883 C7.89814497,15.67464 7.63011319,15.3651929 7.26469842,15.2644696 C6.75067788,15.1227891 6.25465738,14.9172293 5.79045335,14.6535207 C5.64571479,14.5713601 5.48585901,14.5307895 5.32653057,14.5307895 C5.1224833,14.5307895 4.91924462,14.5972352 4.74954507,14.7279118 C4.47592344,14.9383935 4.19994634,15.1466252 3.92934815,15.3468412 C3.88934026,15.3763375 3.83207062,15.371521 3.79603539,15.3354505 L2.65813083,14.1975766 C2.62206044,14.1615061 2.61713856,14.1042011 2.64674018,14.0642282 C2.84716635,13.7932774 3.05536207,13.5173344 3.26563201,13.2440281 C3.49819106,12.9416826 3.52737081,12.5331294 3.33995247,12.2030806 C3.07617461,11.738699 2.87068593,11.2427117 2.72904112,10.7288298 C2.62831827,10.3634136 2.31887235,10.0954159 1.94066068,10.0460914 C1.59922251,10.0015482 1.25697575,9.95362991 0.923447752,9.90377805 C0.874264062,9.8963952 0.837209302,9.85241447 0.837209302,9.80143761 L0.837209302,8.19218599 C0.837209302,8.14120913 0.874264062,8.0972284 0.923447752,8.08984555 C1.25697575,8.03995854 1.59918735,7.99207544 1.94059036,7.94753221 C2.3188372,7.89824286 2.62828311,7.6302452 2.72900597,7.26479384 C2.87058046,6.75094708 3.07613946,6.25492464 3.33991732,5.79054301 C3.52737081,5.46045905 3.49819106,5.05187072 3.26563201,4.74959551 C3.05592457,4.47692204 2.8476937,4.20101417 2.64674018,3.92939539 C2.61720887,3.8894225 2.6220956,3.83204716 2.65813083,3.79604695 L3.79596508,2.65813794 C3.83196515,2.62206742 3.88930511,2.61725098 3.92927784,2.64674725 C4.19987603,2.84692811 4.47585313,3.0551598 4.74947476,3.26567666 C5.0518191,3.49820146 5.46037068,3.52741647 5.79048851,3.33992709 C6.25465738,3.07625367 6.75067788,2.87069387 7.26466326,2.72901336 C7.63011319,2.62829011 7.89814497,2.31884298 7.94746928,1.94059467 C7.99211781,1.5984872 8.03996556,1.25627426 8.08978206,0.923412932 C8.09712973,0.874299363 8.14114544,0.837209302 8.1921221,0.837209302 L9.80133228,0.837209302 C9.85230894,0.837209302 9.89632465,0.874264207 9.90367232,0.923448089 C9.95348883,1.25620394 10.0013366,1.59838173 10.0459851,1.94059467 C10.0953094,2.31884298 10.3633412,2.62829011 10.728756,2.72901336 C11.2427413,2.87069387 11.7387267,3.07625367 12.203001,3.33992709 C12.5330486,3.527311 12.9416353,3.49820146 13.2439093,3.26560634 C13.5175309,3.05512464 13.793508,2.84689295 14.0640711,2.64671209 C14.1040438,2.61711036 14.1614189,2.6219971 14.1974541,2.65810278 L15.3353236,3.79597664 C15.3713939,3.83204716 15.3762455,3.88938734 15.3467142,3.92932508 C15.1461474,4.20052198 14.9379165,4.47642984 14.7278224,4.74952519 C14.4952633,5.05190587 14.4660836,5.4604942 14.6535722,5.79057817 C14.9172798,6.25481917 15.1228036,6.75080645 15.2644836,7.26479384 C15.3652064,7.63021004 15.6747227,7.89817255 16.0528289,7.9474619 C16.3944077,7.99204029 16.7366544,8.03992338 17.0700418,8.08977524 C17.1192255,8.09715809 17.1562802,8.14113882 17.1562802,8.19211568 L17.1562802,9.80133214 C17.1561748,9.852309 17.11912,9.89625457 17.0699363,9.90367258 Z" id="Shape"></path>
                                    </g>
                                </g>
                            </g>
                        </g>
                    </g>
                </g>
            </g>
        </g>
    </g>
</svg>