<?xml version="1.0" encoding="utf-8"?>
<!-- Generator: Adobe Illustrator 18.1.1, SVG Export Plug-In . SVG Version: 6.00 Build 0)  -->
<svg version="1.1" id="Layer_1" xmlns="http://www.w3.org/2000/svg" xmlns:xlink="http://www.w3.org/1999/xlink" width="15px" height="15px" x="0px" y="0px"
	 viewBox="0 0 64 64" enable-background="new 0 0 64 64" xml:space="preserve">
<g id="XMLID_36_">
	<path id="XMLID_38_" fill="#787270" d="M33.3,43.1L46,30.5c1-1,1-2.5,0-3.5s-2.6-0.9-3.5,0L34,35.5v-33C34,1.1,32.9,0,31.5,0
		C30.1,0,29,1.1,29,2.5v33l-8.5-8.4c-1-1-2.6-1-3.5,0s-1,2.4,0,3.4l12.7,12.6c0,0,0.9,1,1.8,1S33.3,43.1,33.3,43.1z"/>
	<path id="XMLID_37_" fill="#787270" d="M59,34.5V56c0,1.7-1.4,3-3,3H8c-1.7,0-3-1.3-3-3V34.5C5,33.2,3.9,32,2.5,32S0,33.2,0,34.5
		L0,58c0,3.3,2.7,6,6,6h52c3.3,0,6-2.7,6-6V34.5c0-1.4-1.1-2.5-2.5-2.5S59,33.2,59,34.5z"/>
</g>
</svg>
