<?xml version="1.0" encoding="utf-8"?>
<!-- Generator: Adobe Illustrator 18.1.1, SVG Export Plug-In . SVG Version: 6.00 Build 0)  -->
<svg version="1.1" id="Layer_1" xmlns="http://www.w3.org/2000/svg" xmlns:xlink="http://www.w3.org/1999/xlink" x="0px" y="0px"
	 viewBox="0 0 64 64" enable-background="new 0 0 64 64" xml:space="preserve">
<g>
	<path fill="#77716F" d="M32,4c11,0,20,9,20,20c0,1.3-0.1,2.6-0.4,3.9c-0.3,1.4,0.2,2.9,1.3,3.8c4.1,3.5,6.6,8.3,7,13.6
		C56.8,46,48.4,47.4,32,47.4c-16.4,0-24.8-1.4-27.9-2.2c0.4-5.2,2.9-9.9,7-13.4c1.1-0.9,1.6-2.4,1.3-3.8C12.1,26.7,12,25.3,12,24
		C12,13,21,4,32,4 M32,0C18.7,0,8,10.8,8,24c0,1.6,0.2,3.2,0.5,4.7C3.3,33.1,0,39.5,0,46.8c0,0.2,0,0.4,0,0.5l0,0l0,0l0,0
		c0,0,0,0,0,0.1c0,2.2,14.3,4,32,4s32-1.8,32-4c0,0,0,0,0-0.1c0-0.2,0-0.4,0-0.5c0-7.3-3.3-13.8-8.5-18.2c0.3-1.5,0.5-3,0.5-4.6
		C56,10.7,45.3,0,32,0L32,0z"/>
	<path fill="#77716F" d="M39.4,53.2c-0.1,4-3.4,7.3-7.4,7.3s-7.4-3.3-7.4-7.3c-1.2,0-2.4-0.1-3.5-0.1c0,6.1,4.9,11,11,11
		s11-4.9,11-11C41.8,53.1,40.6,53.1,39.4,53.2z"/>
</g>
</svg>
