<?xml version="1.0" encoding="utf-8"?>
<!-- Generator: Adobe Illustrator 18.1.1, SVG Export Plug-In . SVG Version: 6.00 Build 0)  -->
<svg version="1.1" id="Layer_1" xmlns="http://www.w3.org/2000/svg" xmlns:xlink="http://www.w3.org/1999/xlink" x="0px" y="0px"
	 viewBox="0 0 64 64" enable-background="new 0 0 64 64" xml:space="preserve">
<path fill="#77716F" d="M36.2,32L63.1,5.1c1.2-1.2,1.2-3.1,0-4.2s-3.1-1.2-4.2,0L32,27.7L5.1,0.9C4-0.3,2-0.3,0.9,0.9
	C-0.3,2-0.3,4,0.9,5.1L27.7,32L0.9,58.9c-1.2,1.2-1.2,3.1,0,4.2c1.2,1.2,3.1,1.2,4.2,0L32,36.2l26.9,26.9c1.2,1.2,3.1,1.2,4.2,0
	c1.2-1.2,1.2-3.1,0-4.2L36.2,32z"/>
</svg>
