<?xml version="1.0" encoding="utf-8"?>
<!-- Generator: Adobe Illustrator 18.1.1, SVG Export Plug-In . SVG Version: 6.00 Build 0)  -->
<svg version="1.1" id="Layer_1" xmlns="http://www.w3.org/2000/svg" xmlns:xlink="http://www.w3.org/1999/xlink" x="0px" y="0px"
	 viewBox="0 0 64 64" enable-background="new 0 0 64 64" xml:space="preserve">
<g>
	<path fill="#D82D16" d="M32,4c0,0,0,0.1,0.1,0.1l28,55.5c0,0.1,0,0.1,0,0.2c0,0,0,0,0,0.1c0,0.1-0.1,0.1-0.1,0.1H4.2
		c0,0-0.1-0.1-0.1-0.1c0,0,0-0.1-0.1-0.1c0-0.1,0-0.1,0-0.1L32,4C32,4,32,4,32,4 M32,0c-1.4,0-2.9,0.7-3.5,2.2l-28,55.6
		c-0.6,1.2-0.6,2.9,0.2,4.1C1.3,63.1,2.6,64,4,64h56c1.4,0,2.7-0.9,3.4-2.1c0.7-1.1,0.8-2.8,0.2-4l-28-55.6C34.9,0.8,33.4,0,32,0
		L32,0z"/>
</g>
<g>
	<g>
		<path fill="#D82D16" d="M33.5,41.8L35,26c0.5-4.4-6.5-4.4-6-0.1l1.5,15.9C30.7,44.1,33.2,44.2,33.5,41.8z"/>
	</g>
	<path fill="#D82D16" d="M32,47.6c-1.6,0-2.9,1.3-2.9,2.9s1.3,2.9,2.9,2.9s2.9-1.3,2.9-2.9S33.6,47.6,32,47.6z"/>
</g>
</svg>
