<?xml version="1.0" encoding="utf-8"?>
<!-- Generator: Adobe Illustrator 18.1.1, SVG Export Plug-In . SVG Version: 6.00 Build 0)  -->
<svg version="1.1" id="Layer_1" xmlns="http://www.w3.org/2000/svg" xmlns:xlink="http://www.w3.org/1999/xlink" x="0px" y="0px" width="15px" height="15px"
	 viewBox="0 0 70 64" enable-background="new 0 0 70 64" xml:space="preserve">
<path fill="#77716F" d="M32,0c17.7,0,32,14.2,32,31.9c0,0.3,0,0.9,0,0.9h6l-8.9,9.9L53,32.8h6c0,0,0-0.6,0-0.9
	C59,17,46.9,4.9,32,4.9S5,17.1,5,32c0,14.9,12.1,27,27,27c5.5,0,10.6-1.7,14.9-4.5c0.6-0.4,2.1-1.2,3.3,0.3c1.4,1.7,0.5,3.2-0.1,3.6
	C44.9,61.9,38.7,64,32,64C14.3,64,0,49.7,0,32C0,14.3,14.3,0,32,0z"/>
</svg>
