<?xml version="1.0" encoding="utf-8"?>
<!-- Generator: Adobe Illustrator 18.1.1, SVG Export Plug-In . SVG Version: 6.00 Build 0)  -->
<svg version="1.1" id="Layer_1" xmlns="http://www.w3.org/2000/svg" xmlns:xlink="http://www.w3.org/1999/xlink" x="0px" y="0px"
	 viewBox="0 0 64 64" enable-background="new 0 0 64 64" xml:space="preserve">
<g>
	<path fill="#77716F" d="M32,4.6C47.2,4.6,59.4,17,59.4,32S47,59.4,32,59.4S4.6,47.2,4.6,32S17,4.6,32,4.6 M32,0C14.4,0,0,14.4,0,32
		s14.4,32,32,32c17.8,0,32-14.4,32-32S49.8,0,32,0L32,0z"/>
	<path fill="#77716F" d="M33.5,51.4h-2.8c-0.9,0-1.5-0.7-1.5-1.5V23.3c0-0.9,0.7-1.5,1.5-1.5h2.8c0.9,0,1.5,0.7,1.5,1.5v26.6
		C35,50.7,34.4,51.4,33.5,51.4z"/>
	<circle fill="#77716F" cx="32" cy="15.7" r="3"/>
</g>
</svg>
