<?xml version="1.0" encoding="UTF-8" standalone="no"?>
<svg width="12px" height="12px" viewBox="0 0 12 12" version="1.1" xmlns="http://www.w3.org/2000/svg" xmlns:xlink="http://www.w3.org/1999/xlink">
    <!-- Generator: Sketch 40.1 (33804) - http://www.bohemiancoding.com/sketch -->
    <title>Group</title>
    <desc>Created with Sketch.</desc>
    <defs></defs>
    <g id="Symbols" stroke="none" stroke-width="1" fill="none" fill-rule="evenodd">
        <g id="Dashboard-Tier1" transform="translate(-431.000000, -479.000000)" fill="#77716F">
            <g id="Group-113" transform="translate(419.000000, 445.000000)">
                <g id="Group-105" transform="translate(12.000000, 30.000000)">
                    <g id="icon-notification" transform="translate(0.000000, 4.000000)">
                        <g id="Group">
                            <path d="M6,0.738461538 C8.0625,0.738461538 9.75,2.4 9.75,4.43076923 C9.75,4.67076923 9.73125,4.91076923 9.675,5.15076923 C9.61875,5.40923077 9.7125,5.68615385 9.91875,5.85230769 C10.6875,6.49846154 11.15625,7.38461538 11.23125,8.36307692 C10.65,8.49230769 9.075,8.75076923 6,8.75076923 C2.925,8.75076923 1.35,8.49230769 0.76875,8.34461538 C0.84375,7.38461538 1.3125,6.51692308 2.08125,5.87076923 C2.2875,5.70461538 2.38125,5.42769231 2.325,5.16923077 C2.26875,4.92923077 2.25,4.67076923 2.25,4.43076923 C2.25,2.4 3.9375,0.738461538 6,0.738461538 L6,0.738461538 Z M6,0 C3.50625,0 1.5,1.99384615 1.5,4.43076923 C1.5,4.72615385 1.5375,5.02153846 1.59375,5.29846154 C0.61875,6.11076923 0,7.29230769 0,8.64 L0,8.73230769 L0,8.73230769 L0,8.73230769 L0,8.73230769 C0,8.73230769 0,8.73230769 0,8.75076923 C0,9.15692308 2.68125,9.48923077 6,9.48923077 C9.31875,9.48923077 12,9.15692308 12,8.75076923 C12,8.75076923 12,8.75076923 12,8.73230769 L12,8.64 C12,7.29230769 11.38125,6.09230769 10.40625,5.28 C10.4625,5.00307692 10.5,4.72615385 10.5,4.43076923 C10.5,1.97538462 8.49375,0 6,0 L6,0 L6,0 Z" id="Shape"></path>
                            <path d="M7.3875,9.82153846 C7.36875,10.56 6.75,11.1692308 6,11.1692308 C5.25,11.1692308 4.6125,10.56 4.6125,9.82153846 C4.3875,9.82153846 4.1625,9.80307692 3.95625,9.80307692 C3.95625,10.9292308 4.875,11.8338462 6.01875,11.8338462 C7.1625,11.8338462 8.08125,10.9292308 8.08125,9.80307692 C7.8375,9.80307692 7.6125,9.80307692 7.3875,9.82153846 L7.3875,9.82153846 Z" id="Shape"></path>
                        </g>
                    </g>
                </g>
            </g>
        </g>
    </g>
</svg>