<?xml version="1.0" encoding="UTF-8" standalone="no"?>
<svg width="18px" height="19px" viewBox="0 0 18 19" version="1.1" xmlns="http://www.w3.org/2000/svg" xmlns:xlink="http://www.w3.org/1999/xlink">
    <!-- Generator: Sketch 40.1 (33804) - http://www.bohemiancoding.com/sketch -->
    <title>Group 91</title>
    <desc>Created with Sketch.</desc>
    <defs></defs>
    <g id="Icons" stroke="none" stroke-width="1" fill="none" fill-rule="evenodd">
        <g id="Interface-Icons---Line" transform="translate(-16.000000, -391.000000)" fill="#77716F">
            <g id="Group" transform="translate(16.000000, 391.000000)">
                <g id="Group-91">
                    <g id="Group-90" transform="translate(6.279070, 6.428571)">
                        <path d="M4.65256388,0.213455503 L2.23574201,4.50681503 L0.669913747,3.40729613 C0.48269515,3.28512736 0.210377192,3.3374854 0.0742182133,3.51201221 C0.00613872374,3.6167283 -0.0108811486,3.72144439 0.00613872374,3.84361315 C0.0231585961,3.96578192 0.0912380856,4.05304532 0.176337448,4.12285605 L2.1166029,5.48416517 C2.20170226,5.55397589 2.3038215,5.57142857 2.38892086,5.57142857 C2.52507984,5.57142857 2.64421894,5.48416517 2.7293183,5.32709104 L5.3844184,0.632319847 C5.43547801,0.527603761 5.45249789,0.422887675 5.43547801,0.300718908 C5.40143827,0.213455503 5.33335878,0.126192098 5.23123954,0.0563813744 C5.02700108,-0.0657873926 4.75468312,0.0214760124 4.65256388,0.213455503 Z" id="Fill-1"></path>
                    </g>
                    <g id="Group-90">
                        <g id="settings">
                            <path d="M17.1975922,7.43467638 C16.859072,7.38277373 16.5115518,7.3329947 16.1647347,7.28670704 C16.1227229,7.28112804 16.0886213,7.2519373 16.0780041,7.21241642 C15.9179373,6.61769558 15.6856595,6.04381499 15.3876746,5.50671977 C15.3676355,5.47065426 15.3713972,5.42515846 15.3972723,5.39071267 C15.6105656,5.10690381 15.8219957,4.8199995 16.0257266,4.53802631 C16.3007896,4.15728691 16.2608521,3.61702426 15.9329139,3.28124077 L14.7950445,2.11627468 C14.4670712,1.78052717 13.93941,1.73963854 13.5674562,2.02132379 C13.2926392,2.22943829 13.0124434,2.44590328 12.7346382,2.66470786 C12.701099,2.69119908 12.656556,2.69505039 12.6213293,2.67457008 C12.0967619,2.36948905 11.5362296,2.1316799 10.9553066,1.96776544 C10.9166698,1.95693139 10.888158,1.92201768 10.8826736,1.87889745 C10.8373571,1.52328153 10.7887711,1.16752163 10.7382163,0.821551968 C10.6697669,0.353168364 10.2684224,0 9.80460509,0 L8.19539491,0 C7.73154244,0 7.33019791,0.353168364 7.26185403,0.821515974 C7.21126408,1.16755762 7.16267805,1.52328153 7.11736156,1.87896944 C7.11184202,1.92205367 7.0833654,1.95689539 7.04469345,1.96776544 C6.46377044,2.13175189 5.90320294,2.36952504 5.37874097,2.67457008 C5.34347919,2.69505039 5.29897129,2.6910911 5.26536185,2.66470786 C4.98759177,2.44590328 4.70736076,2.22943829 4.43250866,2.02128779 C4.06051965,1.73963854 3.53285846,1.78059916 3.20495548,2.11631067 L2.06708607,3.28127676 C1.73911277,3.61709625 1.69921035,4.1573949 1.9743437,4.5380983 C2.17839097,4.82050341 2.38982107,5.10733573 2.6027629,5.39071267 C2.62860279,5.42508648 2.63239967,5.47061827 2.61239573,5.50671977 C2.31434046,6.04392297 2.08209782,6.61780356 1.9220311,7.21241642 C1.91144905,7.25190131 1.87734742,7.28109205 1.83530046,7.28674303 C1.48865916,7.33306668 1.1411741,7.38280972 0.80247813,7.43471237 C0.344953799,7.50471975 0,7.9156937 0,8.39052015 L0,10.0380873 C0,10.5129497 0.344953799,10.9238877 0.802407817,10.993931 C1.14110379,11.0458337 1.488624,11.0955767 1.8352653,11.1418644 C1.87734742,11.1475154 1.91137873,11.1766701 1.92199594,11.216227 C2.08206266,11.8108758 2.31434046,12.3847564 2.61236057,12.9219236 C2.63236452,12.9580251 2.62856763,13.0035569 2.60272774,13.0379307 C2.38925857,13.3219916 2.17782847,13.6088599 1.97430854,13.8905811 C1.69921035,14.2713205 1.73907762,14.8116192 2.06705091,15.1474026 L3.20492032,16.3123687 C3.53292878,16.6481522 4.06066027,16.6890409 4.43250866,16.4073196 C4.7073256,16.1992051 4.98752146,15.9827401 5.26532669,15.7639356 C5.29890097,15.7374443 5.34340887,15.733629 5.37863551,15.7540733 C5.90316778,16.0591544 6.46366497,16.2968915 7.04465829,16.460878 C7.08329508,16.471748 7.11180686,16.5066257 7.11729124,16.549674 C7.16260774,16.9052899 7.21122893,17.2610858 7.26178371,17.6070195 C7.33019791,18.0754031 7.73154244,18.4285714 8.19539491,18.4285714 L9.80460509,18.4285714 C10.2684224,18.4285714 10.6698021,18.0754031 10.7381811,17.6069475 C10.7887711,17.2605819 10.8373571,16.904822 10.8826384,16.549602 C10.888158,16.5065178 10.9166346,16.47164 10.9552714,16.460734 C11.5361944,16.2967476 12.0967619,16.0589744 12.621259,15.7539294 C12.6565208,15.733521 12.7009936,15.7374083 12.734603,15.7637916 C13.0123731,15.9825962 13.2926041,16.1990612 13.567421,16.4071757 C13.9393046,16.6888249 14.4670009,16.6480083 14.7950094,16.3122248 L15.9328788,15.1472587 C16.2608169,14.8114752 16.3007545,14.2712125 16.0256563,13.8904371 C15.8219254,13.6085719 15.6104602,13.3216676 15.3972019,13.0377868 C15.3713621,13.003413 15.3675652,12.9578812 15.3876043,12.9217797 C15.6856244,12.3846125 15.917867,11.8107319 16.0779337,11.216119 C16.0886213,11.1765261 16.1226526,11.1473714 16.1647347,11.1417204 C16.5114815,11.0954328 16.8590017,11.0456537 17.197557,10.9937871 C17.6550462,10.9237797 18,10.5128417 18,10.0379793 L18,8.39041216 C18,7.91565771 17.6550462,7.50468376 17.1975922,7.43467638 L17.1975922,7.43467638 Z M17.0699363,10.1394743 C16.7365841,10.1905491 16.3943725,10.2395003 16.0527937,10.2851761 C15.674582,10.335639 15.3651361,10.6099815 15.2643781,10.9841701 C15.1227333,11.5103233 14.9172095,12.0181558 14.6535371,12.4934502 C14.4660484,12.8313933 14.495193,13.2497459 14.7277872,13.5592901 C14.9378814,13.8388877 15.1461122,14.1214008 15.346679,14.3989828 C15.3762807,14.4399074 15.3713588,14.4986488 15.3353236,14.5355422 L14.197419,15.7005083 C14.1613486,15.7374376 14.1040087,15.7423687 14.0640711,15.7121702 C13.7934729,15.5071871 13.5174606,15.2939975 13.2438742,15.0785044 C12.941565,14.8403353 12.5329782,14.8104967 12.2029307,15.0024141 C11.7386915,15.2723654 11.242671,15.4828195 10.7286857,15.6278734 C10.3632709,15.7309948 10.0953094,16.0478097 10.0459148,16.4350639 C10.0013717,16.7849929 9.95348883,17.1353538 9.90363717,17.4764283 C9.8962895,17.5267832 9.85227378,17.5647204 9.80129712,17.5647204 L8.19208695,17.5647204 C8.14111029,17.5647204 8.09709458,17.5267832 8.0897469,17.4763923 C8.04000071,17.1357137 7.99208265,16.7853528 7.94746928,16.4350999 C7.89814497,16.0478457 7.63011319,15.7310308 7.26469842,15.6279094 C6.75067788,15.4828555 6.25465738,15.2724014 5.79045335,15.0024141 C5.64571479,14.9182972 5.48585901,14.8767607 5.32653057,14.8767607 C5.1224833,14.8767607 4.91924462,14.9447885 4.74954507,15.0785764 C4.47592344,15.2940695 4.19994634,15.5072591 3.92934815,15.7122422 C3.88934026,15.7424407 3.83207062,15.7375096 3.79603539,15.7005803 L2.65813083,14.5356142 C2.62206044,14.4986848 2.61713856,14.4400154 2.64674018,14.3990908 C2.84716635,14.1216888 3.05536207,13.8391757 3.26563201,13.5593621 C3.49819106,13.2498179 3.52737081,12.8315372 3.33995247,12.4936301 C3.07617461,12.0181918 2.87068593,11.5103953 2.72904112,10.9842781 C2.62831827,10.6101615 2.31887235,10.3357829 1.94066068,10.285284 C1.59922251,10.2396803 1.25697575,10.1906211 0.923447752,10.1395823 C0.874264062,10.1320237 0.837209302,10.0869958 0.837209302,10.0348052 L0.837209302,8.38723804 C0.837209302,8.33504744 0.874264062,8.29001956 0.923447752,8.28246092 C1.25697575,8.23138612 1.59918735,8.18236295 1.94059036,8.13675917 C2.3188372,8.08629626 2.62828311,7.8119177 2.72900597,7.43776512 C2.87058046,6.91168391 3.07613946,6.40385142 3.33991732,5.92841309 C3.52737081,5.59046998 3.49819106,5.17215335 3.26563201,4.86268112 C3.05592457,4.58351542 2.8476937,4.30103832 2.64674018,4.02295242 C2.61720887,3.9820278 2.6220956,3.92328638 2.65813083,3.88642902 L3.79596508,2.72142694 C3.83196515,2.68449759 3.88930511,2.67956648 3.92927784,2.70976504 C4.19987603,2.91471211 4.47585313,3.1279017 4.74947476,3.34343086 C5.0518191,3.58149197 5.46037068,3.61140258 5.79048851,3.41944917 C6.25465738,3.14949781 6.75067788,2.93904373 7.26466326,2.79398986 C7.63011319,2.69086845 7.89814497,2.37405353 7.94746928,1.98679931 C7.99211781,1.63654642 8.03996556,1.28618555 8.08978206,0.945398955 C8.09712973,0.895116015 8.14114544,0.857142857 8.1921221,0.857142857 L9.80133228,0.857142857 C9.85230894,0.857142857 9.89632465,0.895080021 9.90367232,0.945434948 C9.95348883,1.28611356 10.0013366,1.63643844 10.0459851,1.98679931 C10.0953094,2.37405353 10.3633412,2.69086845 10.728756,2.79398986 C11.2427413,2.93904373 11.7387267,3.14949781 12.203001,3.41944917 C12.5330486,3.6112946 12.9416353,3.58149197 13.2439093,3.34335888 C13.5175309,3.1278657 13.793508,2.91467612 14.0640711,2.70972905 C14.1040438,2.67942251 14.1614189,2.68442561 14.1974541,2.72139095 L15.3353236,3.88635704 C15.3713939,3.92328638 15.3762455,3.9819918 15.3467142,4.02288044 C15.1461474,4.30053441 14.9379165,4.58301151 14.7278224,4.86260913 C14.4952633,5.17218935 14.4660836,5.59050597 14.6535722,5.92844908 C14.9172798,6.40374344 15.1228036,6.91153994 15.2644836,7.43776512 C15.3652064,7.81188171 15.6747227,8.08622428 16.0528289,8.13668718 C16.3944077,8.18232696 16.7366544,8.23135013 17.0700418,8.28238893 C17.1192255,8.28994757 17.1562802,8.33497546 17.1562802,8.38716605 L17.1562802,10.0346972 C17.1561748,10.0868878 17.11912,10.1318797 17.0699363,10.1394743 Z" id="Shape"></path>
                            <path d="M3.34883721,9.21428571 C3.34883721,12.4045657 5.88391261,15 9,15 C12.1160874,15 14.6511628,12.4045657 14.6511628,9.21428571 C14.6511628,6.02400577 12.1160874,3.42857143 9,3.42857143 C5.88391261,3.42857143 3.34883721,6.02400577 3.34883721,9.21428571 Z M3.76744186,9.21428571 C3.76744186,6.26028743 6.11481933,3.85714286 9,3.85714286 C11.8852407,3.85714286 14.2325581,6.26034885 14.2325581,9.21428571 C14.2325581,12.1682226 11.8853006,14.5714286 9,14.5714286 C6.11469935,14.5714286 3.76744186,12.1682226 3.76744186,9.21428571 Z" id="Shape"></path>
                            <path d="M17.1975922,7.43467638 C16.859072,7.38277373 16.5115518,7.3329947 16.1647347,7.28670704 C16.1227229,7.28112804 16.0886213,7.2519373 16.0780041,7.21241642 C15.9179373,6.61769558 15.6856595,6.04381499 15.3876746,5.50671977 C15.3676355,5.47065426 15.3713972,5.42515846 15.3972723,5.39071267 C15.6105656,5.10690381 15.8219957,4.8199995 16.0257266,4.53802631 C16.3007896,4.15728691 16.2608521,3.61702426 15.9329139,3.28124077 L14.7950445,2.11627468 C14.4670712,1.78052717 13.93941,1.73963854 13.5674562,2.02132379 C13.2926392,2.22943829 13.0124434,2.44590328 12.7346382,2.66470786 C12.701099,2.69119908 12.656556,2.69505039 12.6213293,2.67457008 C12.0967619,2.36948905 11.5362296,2.1316799 10.9553066,1.96776544 C10.9166698,1.95693139 10.888158,1.92201768 10.8826736,1.87889745 C10.8373571,1.52328153 10.7887711,1.16752163 10.7382163,0.821551968 C10.6697669,0.353168364 10.2684224,0 9.80460509,0 L8.19539491,0 C7.73154244,0 7.33019791,0.353168364 7.26185403,0.821515974 C7.21126408,1.16755762 7.16267805,1.52328153 7.11736156,1.87896944 C7.11184202,1.92205367 7.0833654,1.95689539 7.04469345,1.96776544 C6.46377044,2.13175189 5.90320294,2.36952504 5.37874097,2.67457008 C5.34347919,2.69505039 5.29897129,2.6910911 5.26536185,2.66470786 C4.98759177,2.44590328 4.70736076,2.22943829 4.43250866,2.02128779 C4.06051965,1.73963854 3.53285846,1.78059916 3.20495548,2.11631067 L2.06708607,3.28127676 C1.73911277,3.61709625 1.69921035,4.1573949 1.9743437,4.5380983 C2.17839097,4.82050341 2.38982107,5.10733573 2.6027629,5.39071267 C2.62860279,5.42508648 2.63239967,5.47061827 2.61239573,5.50671977 C2.31434046,6.04392297 2.08209782,6.61780356 1.9220311,7.21241642 C1.91144905,7.25190131 1.87734742,7.28109205 1.83530046,7.28674303 C1.48865916,7.33306668 1.1411741,7.38280972 0.80247813,7.43471237 C0.344953799,7.50471975 0,7.9156937 0,8.39052015 L0,10.0380873 C0,10.5129497 0.344953799,10.9238877 0.802407817,10.993931 C1.14110379,11.0458337 1.488624,11.0955767 1.8352653,11.1418644 C1.87734742,11.1475154 1.91137873,11.1766701 1.92199594,11.216227 C2.08206266,11.8108758 2.31434046,12.3847564 2.61236057,12.9219236 C2.63236452,12.9580251 2.62856763,13.0035569 2.60272774,13.0379307 C2.38925857,13.3219916 2.17782847,13.6088599 1.97430854,13.8905811 C1.69921035,14.2713205 1.73907762,14.8116192 2.06705091,15.1474026 L3.20492032,16.3123687 C3.53292878,16.6481522 4.06066027,16.6890409 4.43250866,16.4073196 C4.7073256,16.1992051 4.98752146,15.9827401 5.26532669,15.7639356 C5.29890097,15.7374443 5.34340887,15.733629 5.37863551,15.7540733 C5.90316778,16.0591544 6.46366497,16.2968915 7.04465829,16.460878 C7.08329508,16.471748 7.11180686,16.5066257 7.11729124,16.549674 C7.16260774,16.9052899 7.21122893,17.2610858 7.26178371,17.6070195 C7.33019791,18.0754031 7.73154244,18.4285714 8.19539491,18.4285714 L9.80460509,18.4285714 C10.2684224,18.4285714 10.6698021,18.0754031 10.7381811,17.6069475 C10.7887711,17.2605819 10.8373571,16.904822 10.8826384,16.549602 C10.888158,16.5065178 10.9166346,16.47164 10.9552714,16.460734 C11.5361944,16.2967476 12.0967619,16.0589744 12.621259,15.7539294 C12.6565208,15.733521 12.7009936,15.7374083 12.734603,15.7637916 C13.0123731,15.9825962 13.2926041,16.1990612 13.567421,16.4071757 C13.9393046,16.6888249 14.4670009,16.6480083 14.7950094,16.3122248 L15.9328788,15.1472587 C16.2608169,14.8114752 16.3007545,14.2712125 16.0256563,13.8904371 C15.8219254,13.6085719 15.6104602,13.3216676 15.3972019,13.0377868 C15.3713621,13.003413 15.3675652,12.9578812 15.3876043,12.9217797 C15.6856244,12.3846125 15.917867,11.8107319 16.0779337,11.216119 C16.0886213,11.1765261 16.1226526,11.1473714 16.1647347,11.1417204 C16.5114815,11.0954328 16.8590017,11.0456537 17.197557,10.9937871 C17.6550462,10.9237797 18,10.5128417 18,10.0379793 L18,8.39041216 C18,7.91565771 17.6550462,7.50468376 17.1975922,7.43467638 L17.1975922,7.43467638 Z M17.0699363,10.1394743 C16.7365841,10.1905491 16.3943725,10.2395003 16.0527937,10.2851761 C15.674582,10.335639 15.3651361,10.6099815 15.2643781,10.9841701 C15.1227333,11.5103233 14.9172095,12.0181558 14.6535371,12.4934502 C14.4660484,12.8313933 14.495193,13.2497459 14.7277872,13.5592901 C14.9378814,13.8388877 15.1461122,14.1214008 15.346679,14.3989828 C15.3762807,14.4399074 15.3713588,14.4986488 15.3353236,14.5355422 L14.197419,15.7005083 C14.1613486,15.7374376 14.1040087,15.7423687 14.0640711,15.7121702 C13.7934729,15.5071871 13.5174606,15.2939975 13.2438742,15.0785044 C12.941565,14.8403353 12.5329782,14.8104967 12.2029307,15.0024141 C11.7386915,15.2723654 11.242671,15.4828195 10.7286857,15.6278734 C10.3632709,15.7309948 10.0953094,16.0478097 10.0459148,16.4350639 C10.0013717,16.7849929 9.95348883,17.1353538 9.90363717,17.4764283 C9.8962895,17.5267832 9.85227378,17.5647204 9.80129712,17.5647204 L8.19208695,17.5647204 C8.14111029,17.5647204 8.09709458,17.5267832 8.0897469,17.4763923 C8.04000071,17.1357137 7.99208265,16.7853528 7.94746928,16.4350999 C7.89814497,16.0478457 7.63011319,15.7310308 7.26469842,15.6279094 C6.75067788,15.4828555 6.25465738,15.2724014 5.79045335,15.0024141 C5.64571479,14.9182972 5.48585901,14.8767607 5.32653057,14.8767607 C5.1224833,14.8767607 4.91924462,14.9447885 4.74954507,15.0785764 C4.47592344,15.2940695 4.19994634,15.5072591 3.92934815,15.7122422 C3.88934026,15.7424407 3.83207062,15.7375096 3.79603539,15.7005803 L2.65813083,14.5356142 C2.62206044,14.4986848 2.61713856,14.4400154 2.64674018,14.3990908 C2.84716635,14.1216888 3.05536207,13.8391757 3.26563201,13.5593621 C3.49819106,13.2498179 3.52737081,12.8315372 3.33995247,12.4936301 C3.07617461,12.0181918 2.87068593,11.5103953 2.72904112,10.9842781 C2.62831827,10.6101615 2.31887235,10.3357829 1.94066068,10.285284 C1.59922251,10.2396803 1.25697575,10.1906211 0.923447752,10.1395823 C0.874264062,10.1320237 0.837209302,10.0869958 0.837209302,10.0348052 L0.837209302,8.38723804 C0.837209302,8.33504744 0.874264062,8.29001956 0.923447752,8.28246092 C1.25697575,8.23138612 1.59918735,8.18236295 1.94059036,8.13675917 C2.3188372,8.08629626 2.62828311,7.8119177 2.72900597,7.43776512 C2.87058046,6.91168391 3.07613946,6.40385142 3.33991732,5.92841309 C3.52737081,5.59046998 3.49819106,5.17215335 3.26563201,4.86268112 C3.05592457,4.58351542 2.8476937,4.30103832 2.64674018,4.02295242 C2.61720887,3.9820278 2.6220956,3.92328638 2.65813083,3.88642902 L3.79596508,2.72142694 C3.83196515,2.68449759 3.88930511,2.67956648 3.92927784,2.70976504 C4.19987603,2.91471211 4.47585313,3.1279017 4.74947476,3.34343086 C5.0518191,3.58149197 5.46037068,3.61140258 5.79048851,3.41944917 C6.25465738,3.14949781 6.75067788,2.93904373 7.26466326,2.79398986 C7.63011319,2.69086845 7.89814497,2.37405353 7.94746928,1.98679931 C7.99211781,1.63654642 8.03996556,1.28618555 8.08978206,0.945398955 C8.09712973,0.895116015 8.14114544,0.857142857 8.1921221,0.857142857 L9.80133228,0.857142857 C9.85230894,0.857142857 9.89632465,0.895080021 9.90367232,0.945434948 C9.95348883,1.28611356 10.0013366,1.63643844 10.0459851,1.98679931 C10.0953094,2.37405353 10.3633412,2.69086845 10.728756,2.79398986 C11.2427413,2.93904373 11.7387267,3.14949781 12.203001,3.41944917 C12.5330486,3.6112946 12.9416353,3.58149197 13.2439093,3.34335888 C13.5175309,3.1278657 13.793508,2.91467612 14.0640711,2.70972905 C14.1040438,2.67942251 14.1614189,2.68442561 14.1974541,2.72139095 L15.3353236,3.88635704 C15.3713939,3.92328638 15.3762455,3.9819918 15.3467142,4.02288044 C15.1461474,4.30053441 14.9379165,4.58301151 14.7278224,4.86260913 C14.4952633,5.17218935 14.4660836,5.59050597 14.6535722,5.92844908 C14.9172798,6.40374344 15.1228036,6.91153994 15.2644836,7.43776512 C15.3652064,7.81188171 15.6747227,8.08622428 16.0528289,8.13668718 C16.3944077,8.18232696 16.7366544,8.23135013 17.0700418,8.28238893 C17.1192255,8.28994757 17.1562802,8.33497546 17.1562802,8.38716605 L17.1562802,10.0346972 C17.1561748,10.0868878 17.11912,10.1318797 17.0699363,10.1394743 Z" id="Shape"></path>
                        </g>
                    </g>
                </g>
            </g>
        </g>
    </g>
</svg>