<?xml version="1.0" encoding="UTF-8" standalone="no"?>
<svg width="20px" height="20px" viewBox="0 0 20 20" version="1.1" xmlns="http://www.w3.org/2000/svg" xmlns:xlink="http://www.w3.org/1999/xlink">
    <!-- Generator: Sketch 40.1 (33804) - http://www.bohemiancoding.com/sketch -->
    <title>Group 14</title>
    <desc>Created with Sketch.</desc>
    <defs></defs>
    <g id="Icons" stroke="none" stroke-width="1" fill="none" fill-rule="evenodd">
        <g id="Interface-Icons---Line" transform="translate(-15.000000, -592.000000)">
            <g id="Group" transform="translate(16.000000, 391.000000)">
                <g id="Group-14" transform="translate(0.000000, 202.000000)">
                    <g id="Group-19">
                        <path d="M12.6912363,11.8887024 C12.912445,12.1099111 12.912445,12.469744 12.6912363,12.6909527 C12.5843755,12.7978135 12.4418944,12.8568025 12.2901112,12.8568025 C12.1383279,12.8568025 11.9958468,12.7978135 11.888986,12.6909527 L8.99988656,9.80208016 L6.11101401,12.6909527 C5.89729235,12.9049013 5.52248535,12.9049013 5.30876369,12.6909527 C5.08755496,12.469744 5.08755496,12.1099111 5.30876369,11.8887024 L8.19763624,8.99982984 L5.30876369,6.11073041 C5.08755496,5.88952168 5.08755496,5.52968882 5.30876369,5.30848009 C5.41562452,5.20161926 5.55810563,5.14285714 5.70988885,5.14285714 C5.86167207,5.14285714 6.00415318,5.20161926 6.11101401,5.30848009 L8.99988656,8.19735264 L11.888986,5.30848009 C11.9958468,5.20161926 12.1383279,5.14285714 12.2901112,5.14285714 C12.4418944,5.14285714 12.5843755,5.20161926 12.6912363,5.30848009 C12.912445,5.52968882 12.912445,5.88952168 12.6912363,6.11073041 L9.80236376,8.99982984 L12.6912363,11.8887024 Z" id="Path" fill="#77716F"></path>
                        <g id="Group-4" stroke="#77716F">
                            <g id="Group-3">
                                <circle id="Oval" cx="9" cy="9" r="9"></circle>
                            </g>
                        </g>
                    </g>
                </g>
            </g>
        </g>
    </g>
</svg>